<?xml version="1.0" encoding="utf-8"?>
<!-- Generator: Adobe Illustrator 19.2.1, SVG Export Plug-In . SVG Version: 6.00 Build 0)  -->
<svg version="1.1" id="layer" xmlns="http://www.w3.org/2000/svg" xmlns:xlink="http://www.w3.org/1999/xlink" x="0px" y="0px"
	 viewBox="0 0 652 652" style="enable-background:new 0 0 652 652;" xml:space="preserve">
<style type="text/css">
	.st0{fill:#414141;}
</style>
<path class="st0" d="M577,336.4c-2.1,1.6-12.7,8.1-6.3-9.5c3.4-9.5,18.8-52.4,7.4-61.5c-5.6-4.4-17.1-7.5-22.6-2.1
	c-5.5,5.5-3.7,17-3.7,25.7c0,17.9-6.6,36.2-10,45.2c-7.8,6.6-13.1,10.2-15.8,11c0,0,4.5-16.8-7.9-16.3c-15.1,0.6-19,17.1-23.1,16.8
	c-5.5-0.4,0.8-11.6-0.5-14.7c-0.7-1.6-5.3-2.3-12.6-2.1c-17.3,0.5-17.3,14.7-17.3,16.8c0,6.3-3.4,20.3-5.3,31.1
	c-4.6,4.5-17.9,16.2-31,16.2c-8.4,0-21.4-6-22.6-18.9c-0.3-3.2,1.6-4.2,2.6-4.2c1.6,0,11.9,0.6,24.2-5.3c10-4.8,15.8-12.1,15.8-22.1
	c0-5.8-0.5-16.8-22.1-16.8c-22.1,0-40.8,10-47.3,29.4c-11.3-10.5-13.4-17.1-14.2-19.4c-1.1-3.2-0.8-8.9-11-8.9
	c-0.5,0-13.1,0-13.1,11.6c0,4.2,10.5,10,8.4,14.7c-2.5,5.8-11.6,35.2-29.9,35.2c-16.2,0-5.3-31-3.2-37.8c1.6-4.2,5.7-18.9,3.7-21
	c-1-1.1-4.2-1.6-8.9-1.6c-14.2,0-23.6,16.8-27.8,47.8c-11.9,11.9-22.6,17.9-32,17.9c-6.8,0-18.3-1.3-22.4-14.3
	c-0.9-3,42.9-12.6,42.9-36.1c0-6.8,0-16.8-22.1-16.8c-13.7,0-26.3,4.2-35.2,11.6c-4.5,3.7-16.3,15.8-14.7,40.5
	c-1.2,1.1-6.9,4.2-16.8,4.2c-15.8,0-24.7-29.4-25.7-34.1c-3.7-17.3-16.5-21.7-13.7-23.6c5.7-4.2,13-3.2,33.1-17.9
	c11.6-9.5,17.9-21.5,17.9-34.7c0-7.4-2.6-23.5-21-29.9c-11.2-3.7-22.9-5.5-34.7-5.3c-8.4,0-36.8,0.5-64.1,9.5
	c-34.7,13.7-52.5,32.6-54.1,58.8c-0.5,7.9,1.3,25.7,24.7,25.7c21.3,0,31.1-16.8,30.5-22.6c-2.5,1.2-12.5,3.5-16.5-2.1
	c-8.4-11.3,0.5-32.2,16-42.6c13-8.8,26.3-13.7,38.9-14.2c-2.1,3.2-7.9,12.1-10.5,20c-3.7,10.5-31.5,105.1-36.2,125.6
	c-1.6,7.4-1.6,10.9,0,11c9.9,0.8,31.7,1.2,32-3.7c2-27.3,13.7-60.4,15.2-69.9c0.6-3.7,3.7-4.2,4.7-4.2c2.6,0,5.3,2.1,6.8,3.7
	c3.7,4.7,7.4,12.6,6.8,25.7c-0.5,10.5-1.5,46.8,28.4,46.8c20.1,0,39.5-13.8,41-16.3c2.1,5.3,10,17.3,34.7,17.3
	c27.3,0,46.2-18.4,46.8-17.9c0.5,0.5,0.6,1.6,0.5,2.6c-0.2,4.2,1.3,15,18.4,14.7c37-0.5,58.8-30.4,63-50.4c6.9,7.4,12.2,9.6,13.7,10
	c0,4.7-9.4,41,35.7,41c17.7,0,32.6-6.7,44.7-20c-0.9,4.7-4.4,14.1-2.6,18.4c0.2,0.5,13.6,0,22.6,0c3.4,0,3.2-0.7,3.4-1.8
	c2.1-8-1.4-27.8,17.1-52.3c2-2.6,4.7-3.8,5.8-0.9c5.4,13.5,19.4,8.6,34.1-6.9c-3.2,12-4.7,22.3-4.7,31c0,11,3.2,33.4,33.6,32.6
	c41.4-1.1,51.5-31,51.5-53.1c0-6.4-3.9-23.6-24.2-23.1C587,329.8,581.2,333.3,577,336.4z M590.1,365.3c-2.1,11.3-13.8,36-22.6,35.2
	c-11.4-1.1-8.9-22.1-7.4-31c2.1-8.4,8.6-29.7,21.5-28.9C594.7,341.4,592.2,354.3,590.1,365.3z M426.8,334.8
	c14.3-0.6,7.8,16.3-0.5,23.6c-11.9,10.5-17.8,9.5-19.7,7.8c-2.5-2.1-0.9-8.8,3.6-17C414.9,340.7,419,335.2,426.8,334.8z
	 M257.6,343.2c0.4,4.7-8.9,21.8-31,27.8c-2.2-5.9,1.4-14.9,3.7-18.9c1.7-3,8.5-16.4,18.4-17.3C254.1,334.5,257.1,337.3,257.6,343.2z
	 M144.7,247.1c2.1,0,7.9,2.1,12.6,7.4c3.2,3.7,6.8,10,5.8,19.4c-1.1,10-3.7,18.9-7.4,25.7c-3.2,5.8-7.4,10.5-12.1,14.2
	c-8.2,7-25.6,8.1-26.8,5.8c-1.1-1.6-0.5-4.2,2.1-11.6c3.6-11.9,17-51.7,20-56.2C139.9,249.7,141.8,247.1,144.7,247.1z"/>
</svg>
